<?xml version="1.0" standalone="no"?>
<!DOCTYPE svg PUBLIC "-//W3C//DTD SVG 20010904//EN"
 "http://www.w3.org/TR/2001/REC-SVG-20010904/DTD/svg10.dtd">
<svg version="1.0" xmlns="http://www.w3.org/2000/svg"
 width="299.000000pt" height="263.000000pt" viewBox="0 0 299.000000 263.000000"
 preserveAspectRatio="xMidYMid meet">

<g transform="translate(0.000000,263.000000) scale(0.100000,-0.100000)"
fill="#000000" stroke="none">
<path d="M430 1935 l0 -685 160 0 160 0 1 288 c0 158 3 281 6 275 7 -20 346
-18 366 1 8 8 56 92 108 185 51 94 96 167 100 163 4 -4 71 -169 148 -366 125
-319 151 -376 171 -376 20 0 41 41 116 221 47 112 90 207 97 211 7 4 94 8 195
8 l182 0 0 -305 0 -305 160 0 160 0 0 685 0 685 -160 0 -160 0 0 -305 0 -305
-211 0 c-120 0 -218 -4 -229 -10 -10 -5 -44 -57 -75 -115 -38 -71 -62 -105
-72 -103 -8 2 -70 126 -149 302 -73 164 -139 305 -145 312 -32 38 -47 19 -165
-218 -64 -128 -121 -236 -128 -240 -6 -4 -80 -8 -163 -8 l-153 0 0 345 0 345
-160 0 -160 0 0 -685z"/>
<path d="M0 1935 l0 -425 165 0 165 0 0 425 0 425 -165 0 -165 0 0 -425z"/>
<path d="M2670 1935 l0 -425 160 0 160 0 0 425 0 425 -160 0 -160 0 0 -425z"/>
<path d="M2417 1036 c-106 -30 -160 -106 -178 -251 -17 -138 -6 -524 17 -599
35 -116 127 -176 269 -176 136 0 222 53 266 165 23 58 23 69 24 350 0 246 -3
298 -17 345 -22 69 -65 122 -123 150 -58 28 -188 36 -258 16z m158 -126 c50
-19 55 -51 55 -380 0 -332 -4 -361 -57 -381 -39 -15 -102 -5 -127 21 -20 20
-21 31 -24 345 -2 281 -1 329 13 355 24 46 81 62 140 40z"/>
<path d="M180 530 l0 -510 90 0 90 0 0 235 0 235 95 0 95 0 0 60 0 60 -95 0
-95 0 0 150 0 150 115 0 115 0 0 65 0 65 -205 0 -205 0 0 -510z"/>
<path d="M710 530 l0 -510 90 0 90 0 0 510 0 510 -90 0 -90 0 0 -510z"/>
<path d="M990 975 l0 -65 80 0 80 0 0 -445 0 -445 90 0 90 0 0 445 0 445 80 0
80 0 0 65 0 65 -250 0 -250 0 0 -65z"/>
<path d="M1900 530 l0 -510 90 0 90 0 0 510 0 510 -90 0 -90 0 0 -510z"/>
</g>
</svg>
